<svg width="20" height="24" viewBox="0 0 20 24" fill="none" xmlns="http://www.w3.org/2000/svg">
<path d="M15.1429 5.88889C15.1429 7.1855 14.601 8.42901 13.6365 9.34586C12.6721 10.2627 11.364 10.7778 10 10.7778C8.63603 10.7778 7.32792 10.2627 6.36345 9.34586C5.39898 8.42901 4.85714 7.1855 4.85714 5.88889C4.85714 4.59227 5.39898 3.34877 6.36345 2.43192C7.32792 1.51508 8.63603 1 10 1C11.364 1 12.6721 1.51508 13.6365 2.43192C14.601 3.34877 15.1429 4.59227 15.1429 5.88889ZM10 14.4444C7.61305 14.4444 5.32387 15.3458 3.63604 16.9503C1.94821 18.5548 1 20.7309 1 23H19C19 20.7309 18.0518 18.5548 16.364 16.9503C14.6761 15.3458 12.3869 14.4444 10 14.4444Z" fill="#7D8387" stroke="#7D8387" stroke-width="2" stroke-linecap="round" stroke-linejoin="round"/>
</svg>
