<svg width="23" height="23" viewBox="0 0 23 23" fill="none" xmlns="http://www.w3.org/2000/svg">
<path d="M21.0068 15.1391C19.1198 15.8977 17.0513 16.0851 15.0585 15.6782C13.0657 15.2712 11.2366 14.2878 9.79836 12.8501C8.36015 11.4125 7.37634 9.58401 6.96922 7.59201C6.56209 5.60001 6.74961 3.53233 7.50847 1.646C5.27377 2.54577 3.42179 4.19456 2.26998 6.30973C1.11817 8.4249 0.738286 10.8747 1.19544 13.2392C1.6526 15.6036 2.91833 17.7355 4.77565 19.2693C6.63297 20.8032 8.96619 21.6434 11.3754 21.646C13.4471 21.6461 15.4714 21.0264 17.1878 19.8668C18.9043 18.7072 20.2343 17.0607 21.0068 15.1391Z" stroke="black" stroke-width="2" stroke-linecap="round" stroke-linejoin="round"/>
</svg>
