<svg width="21" height="17" viewBox="0 0 21 17" fill="none" xmlns="http://www.w3.org/2000/svg">
<path d="M1.47217 4.69444L9.36217 9.95444C9.69083 10.1737 10.0771 10.2907 10.4722 10.2907C10.8673 10.2907 11.2535 10.1737 11.5822 9.95444L19.4722 4.69444M3.47217 15.6944H17.4722C18.0026 15.6944 18.5113 15.4837 18.8864 15.1087C19.2615 14.7336 19.4722 14.2249 19.4722 13.6944V3.69444C19.4722 3.16401 19.2615 2.6553 18.8864 2.28023C18.5113 1.90516 18.0026 1.69444 17.4722 1.69444H3.47217C2.94173 1.69444 2.43303 1.90516 2.05795 2.28023C1.68288 2.6553 1.47217 3.16401 1.47217 3.69444V13.6944C1.47217 14.2249 1.68288 14.7336 2.05795 15.1087C2.43303 15.4837 2.94173 15.6944 3.47217 15.6944Z" stroke="black" stroke-width="2" stroke-linecap="round" stroke-linejoin="round"/>
</svg>
