<svg width="21" height="18" viewBox="0 0 21 18" fill="none" xmlns="http://www.w3.org/2000/svg">
<path d="M16 13L20 9M20 9L16 5M20 9H13H9.30769H5.61538M13 13V14C13 14.7956 12.7082 15.5587 12.1889 16.1213C11.6696 16.6839 10.9652 17 10.2308 17H3.76923C3.03479 17 2.33042 16.6839 1.81109 16.1213C1.29176 15.5587 1 14.7956 1 14V4C1 3.20435 1.29176 2.44129 1.81109 1.87868C2.33042 1.31607 3.03479 1 3.76923 1H10.2308C10.9652 1 11.6696 1.31607 12.1889 1.87868C12.7082 2.44129 13 3.20435 13 4V5" stroke="black" stroke-width="2" stroke-linecap="round" stroke-linejoin="round"/>
</svg>
