<svg width="22" height="22" viewBox="0 0 22 22" fill="none" xmlns="http://www.w3.org/2000/svg">
<path d="M11 1V2.11111M11 19.8889V21M21 11H19.8889M2.11111 11H1M18.0711 18.0711L17.2856 17.2856M4.71444 4.71444L3.92889 3.92889M18.0711 3.92889L17.2856 4.71444M4.71444 17.2856L3.92889 18.0711M15.4444 11C15.4444 12.1787 14.9762 13.3092 14.1427 14.1427C13.3092 14.9762 12.1787 15.4444 11 15.4444C9.82126 15.4444 8.6908 14.9762 7.8573 14.1427C7.02381 13.3092 6.55556 12.1787 6.55556 11C6.55556 9.82126 7.02381 8.6908 7.8573 7.8573C8.6908 7.02381 9.82126 6.55556 11 6.55556C12.1787 6.55556 13.3092 7.02381 14.1427 7.8573C14.9762 8.6908 15.4444 9.82126 15.4444 11Z" stroke="#00AAEC" stroke-width="2" stroke-linecap="round" stroke-linejoin="round"/>
</svg>
