<svg width="39" height="34" viewBox="0 0 39 34" fill="none" xmlns="http://www.w3.org/2000/svg">
<path d="M1 11C1 9.93913 1.43313 8.92172 2.20412 8.17157C2.9751 7.42143 4.02078 7 5.11111 7H7.02278C7.69943 7.0001 8.36566 6.83769 8.96233 6.52718C9.559 6.21667 10.0677 5.76766 10.4432 5.22L12.1123 2.78C12.4879 2.23234 12.9966 1.78333 13.5932 1.47282C14.1899 1.16231 14.8561 0.999902 15.5328 1H23.4672C24.1439 0.999902 24.8101 1.16231 25.4068 1.47282C26.0034 1.78333 26.5121 2.23234 26.8877 2.78L28.5568 5.22C28.9323 5.76766 29.441 6.21667 30.0377 6.52718C30.6343 6.83769 31.3006 7.0001 31.9772 7H33.8889C34.9792 7 36.0249 7.42143 36.7959 8.17157C37.5669 8.92172 38 9.93913 38 11V29C38 30.0609 37.5669 31.0783 36.7959 31.8284C36.0249 32.5786 34.9792 33 33.8889 33H5.11111C4.02078 33 2.9751 32.5786 2.20412 31.8284C1.43313 31.0783 1 30.0609 1 29V11Z" stroke="white" stroke-width="2" stroke-linecap="round" stroke-linejoin="round"/>
<path d="M25.6668 19C25.6668 20.5913 25.0171 22.1174 23.8607 23.2426C22.7042 24.3679 21.1357 25 19.5002 25C17.8647 25 16.2961 24.3679 15.1397 23.2426C13.9832 22.1174 13.3335 20.5913 13.3335 19C13.3335 17.4087 13.9832 15.8826 15.1397 14.7574C16.2961 13.6321 17.8647 13 19.5002 13C21.1357 13 22.7042 13.6321 23.8607 14.7574C25.0171 15.8826 25.6668 17.4087 25.6668 19Z" stroke="white" stroke-width="2" stroke-linecap="round" stroke-linejoin="round"/>
</svg>
