<svg width="21" height="21" viewBox="0 0 21 21" fill="none" xmlns="http://www.w3.org/2000/svg">
<path d="M19.8669 10.3726H13.8669M11.8669 5.37256C11.8669 6.43342 11.4455 7.45084 10.6954 8.20099C9.94523 8.95113 8.92781 9.37256 7.86694 9.37256C6.80608 9.37256 5.78866 8.95113 5.03852 8.20099C4.28837 7.45084 3.86694 6.43342 3.86694 5.37256C3.86694 4.31169 4.28837 3.29428 5.03852 2.54413C5.78866 1.79399 6.80608 1.37256 7.86694 1.37256C8.92781 1.37256 9.94523 1.79399 10.6954 2.54413C11.4455 3.29428 11.8669 4.31169 11.8669 5.37256ZM7.86694 12.3726C6.27564 12.3726 4.74952 13.0047 3.6243 14.1299C2.49908 15.2551 1.86694 16.7813 1.86694 18.3726V19.3726H13.8669V18.3726C13.8669 16.7813 13.2348 15.2551 12.1096 14.1299C10.9844 13.0047 9.45824 12.3726 7.86694 12.3726Z" stroke="black" stroke-width="2" stroke-linecap="round" stroke-linejoin="round"/>
</svg>
